<svg width="44" height="9" viewBox="0 0 44 9" fill="none" xmlns="http://www.w3.org/2000/svg">
<path d="M11.8037 2.28027C12.6103 2.28027 13.2503 2.4573 13.7236 2.81055C14.1969 3.16381 14.4572 3.65688 14.5039 4.29004H12.9043C12.831 4.01018 12.7003 3.80729 12.5137 3.68066C12.327 3.55406 12.0573 3.49024 11.7041 3.49023C11.3974 3.49023 11.1639 3.53753 11.0039 3.63086C10.8441 3.71751 10.7637 3.85044 10.7637 4.03027C10.7637 4.15694 10.8141 4.26392 10.9141 4.35059C11.0141 4.43719 11.1675 4.50005 11.374 4.54004L12.7441 4.80078C13.3706 4.92743 13.8307 5.13024 14.124 5.41016C14.4174 5.69016 14.5645 6.07078 14.5645 6.55078C14.5644 7.17051 14.3338 7.65342 13.874 8C13.4207 8.34666 12.7674 8.5205 11.9141 8.52051C11.0342 8.52051 10.3375 8.33724 9.82422 7.9707C9.31755 7.59737 9.04391 7.07682 9.00391 6.41016H10.6045C10.6578 6.69679 10.7937 6.91078 11.0137 7.05078C11.2403 7.19078 11.5644 7.26074 11.9844 7.26074C12.6708 7.26068 13.0137 7.07034 13.0137 6.69043C13.0137 6.53716 12.9611 6.41674 12.8545 6.33008C12.7545 6.23674 12.5838 6.16678 12.3438 6.12012L11.0039 5.86035C9.80399 5.627 9.2041 5.06322 9.2041 4.16992C9.20423 3.59701 9.43401 3.14065 9.89355 2.80078C10.3535 2.45416 10.9905 2.28032 11.8037 2.28027ZM18.3164 2.28027C19.1097 2.28027 19.763 2.48086 20.2764 2.88086C20.7897 3.28085 21.1137 3.83031 21.2471 4.53027H19.5771C19.4905 4.2704 19.3401 4.07065 19.127 3.93066C18.9136 3.79066 18.6431 3.7207 18.3164 3.7207C17.8699 3.72076 17.5096 3.86688 17.2363 4.16016C16.9697 4.45349 16.8369 4.86709 16.8369 5.40039C16.8369 5.93372 16.9737 6.34729 17.2471 6.64062C17.5203 6.93369 17.8767 7.08002 18.3164 7.08008C19.023 7.08008 19.453 6.78046 19.6064 6.18066H21.2764C21.1564 6.91371 20.8402 7.48713 20.3271 7.90039C19.8138 8.31372 19.1431 8.52051 18.3164 8.52051C17.69 8.52047 17.1402 8.3938 16.667 8.14062C16.2004 7.88066 15.8331 7.51737 15.5664 7.05078C15.3064 6.58411 15.1768 6.03372 15.1768 5.40039C15.1768 4.76706 15.3064 4.21667 15.5664 3.75C15.8264 3.28342 16.1937 2.92322 16.667 2.66992C17.1402 2.41012 17.69 2.28031 18.3164 2.28027ZM24.8105 2.28027C25.4372 2.28027 25.9742 2.40063 26.4209 2.64062C26.874 2.88058 27.221 3.22347 27.4609 3.66992C27.7009 4.11659 27.8203 4.65051 27.8203 5.27051V5.83008H23.2705C23.3372 6.2767 23.507 6.61725 23.7803 6.85059C24.0536 7.08388 24.4138 7.20015 24.8604 7.2002C25.2135 7.2002 25.4936 7.14038 25.7002 7.02051C25.9068 6.90055 26.0539 6.71724 26.1406 6.4707H27.8008C27.6674 7.11047 27.3442 7.61387 26.8311 7.98047C26.3177 8.34047 25.6635 8.52051 24.8701 8.52051C24.2237 8.52045 23.6605 8.39384 23.1807 8.14062C22.7007 7.88066 22.3303 7.51736 22.0703 7.05078C21.8104 6.57756 21.6807 6.02066 21.6807 5.38086C21.6807 4.74089 21.8072 4.19045 22.0605 3.73047C22.3139 3.2638 22.674 2.90682 23.1406 2.66016C23.6139 2.40687 24.1706 2.28028 24.8105 2.28027ZM42.582 6.76074H43.4023V8.40039H41.7217V7.41992H41.3018C41.0885 7.76654 40.8023 8.03714 40.4424 8.23047C40.0891 8.42378 39.6589 8.52048 39.1523 8.52051C38.5391 8.52051 38.0153 8.39081 37.582 8.13086C37.1554 7.87086 36.8323 7.50671 36.6123 7.04004C36.3924 6.56676 36.2822 6.02029 36.2822 5.40039C36.2822 4.77379 36.3892 4.22738 36.6025 3.76074C36.8159 3.28741 37.1256 2.92326 37.5322 2.66992C37.9454 2.4101 38.4387 2.28034 39.0117 2.28027C39.4517 2.28027 39.8292 2.36361 40.1426 2.53027C40.4624 2.69027 40.7086 2.9208 40.8818 3.2207H40.9219V0H42.582V6.76074ZM8.56055 8.40039H6.82031L5.99023 6.41992H2.53027L1.68066 8.40039H0L3.43066 0.300781H5.1709L8.56055 8.40039ZM32.7178 2.29004C33.551 2.2901 34.1942 2.52053 34.6475 2.98047C35.1074 3.4338 35.3379 4.0439 35.3379 4.81055V8.40039H33.6777V5.12012C33.6777 4.68026 33.5573 4.34673 33.3174 4.12012C33.0841 3.88691 32.7403 3.77051 32.2871 3.77051C31.8339 3.77057 31.487 3.88684 31.2471 4.12012C31.0138 4.34673 30.8975 4.6803 30.8975 5.12012V8.40039H29.2373V4.04004H28.417V2.40039H30.0977V3.38086H30.5176C30.7509 3.03419 31.0441 2.76674 31.3975 2.58008C31.7508 2.38679 32.1912 2.29004 32.7178 2.29004ZM39.4619 3.7207C38.9556 3.72075 38.5756 3.87019 38.3223 4.16992C38.0689 4.46992 37.9424 4.88039 37.9424 5.40039C37.9424 5.92039 38.0689 6.33086 38.3223 6.63086C38.5756 6.93059 38.9556 7.08003 39.4619 7.08008C39.9086 7.08008 40.2625 6.95663 40.5225 6.70996C40.7889 6.45666 40.9219 6.10971 40.9219 5.66992V5.13086C40.9219 4.691 40.789 4.34724 40.5225 4.10059C40.2625 3.84725 39.9086 3.7207 39.4619 3.7207ZM3.06055 5H5.53027L4.32031 2.08008H4.27051L3.06055 5ZM24.8203 3.59082C24.4138 3.59086 24.0803 3.68757 23.8203 3.88086C23.5672 4.07419 23.3972 4.35733 23.3105 4.73047H26.2305C26.1772 4.35073 26.0307 4.06753 25.791 3.88086C25.551 3.68753 25.227 3.59082 24.8203 3.59082Z" fill="white"/>
</svg>
