<svg width="129" height="9" viewBox="0 0 129 9" fill="none" xmlns="http://www.w3.org/2000/svg">
<path d="M125.653 8.52C124.786 8.52 124.103 8.34 123.603 7.98C123.103 7.61333 122.833 7.10333 122.793 6.45H124.243C124.289 6.76333 124.433 6.99667 124.673 7.15C124.913 7.29667 125.259 7.37 125.713 7.37C126.479 7.37 126.863 7.14667 126.863 6.7C126.863 6.52 126.803 6.38 126.683 6.28C126.569 6.18 126.376 6.10333 126.103 6.05L124.783 5.8C123.609 5.57333 123.023 5.02 123.023 4.14C123.023 3.57333 123.246 3.12333 123.693 2.79C124.139 2.45 124.756 2.28 125.543 2.28C126.329 2.28 126.953 2.45333 127.413 2.8C127.879 3.14 128.139 3.62333 128.193 4.25H126.753C126.679 3.95 126.539 3.73333 126.333 3.6C126.133 3.46 125.843 3.39 125.463 3.39C125.123 3.39 124.863 3.44333 124.683 3.55C124.503 3.65667 124.413 3.81333 124.413 4.02C124.413 4.17333 124.469 4.29667 124.583 4.39C124.696 4.48333 124.876 4.55333 125.123 4.6L126.473 4.86C127.086 4.98 127.536 5.18 127.823 5.46C128.109 5.74 128.253 6.11666 128.253 6.59C128.253 7.19666 128.029 7.67 127.583 8.01C127.136 8.35 126.493 8.52 125.653 8.52Z" fill="#D9D9D9"/>
<path d="M115.782 8.4V3.89H115.042V2.4H116.572V3.36H116.992C117.218 3.02 117.508 2.75667 117.862 2.57C118.215 2.38333 118.648 2.29 119.162 2.29C119.982 2.29 120.615 2.51667 121.062 2.97C121.515 3.42333 121.742 4.02667 121.742 4.78V8.4H120.252V5.06C120.252 4.58667 120.125 4.22667 119.872 3.98C119.625 3.73333 119.255 3.61 118.762 3.61C118.282 3.61 117.912 3.73333 117.652 3.98C117.398 4.22667 117.272 4.58667 117.272 5.06V8.4H115.782Z" fill="#D9D9D9"/>
<path d="M111.16 8.52C110.513 8.52 109.95 8.39333 109.47 8.14C108.997 7.88 108.627 7.51666 108.36 7.05C108.1 6.58333 107.97 6.03333 107.97 5.4C107.97 4.76 108.1 4.20667 108.36 3.74C108.627 3.27333 109 2.91333 109.48 2.66C109.96 2.40667 110.52 2.28 111.16 2.28C111.813 2.28 112.373 2.40667 112.84 2.66C113.313 2.91333 113.68 3.27333 113.94 3.74C114.2 4.20667 114.33 4.76 114.33 5.4C114.33 6.03333 114.2 6.58667 113.94 7.06C113.68 7.52667 113.313 7.88667 112.84 8.14C112.367 8.39333 111.807 8.52 111.16 8.52ZM111.16 7.22C111.693 7.22 112.107 7.06 112.4 6.74C112.693 6.41333 112.84 5.96667 112.84 5.4C112.84 4.82667 112.693 4.38 112.4 4.06C112.107 3.74 111.693 3.58 111.16 3.58C110.62 3.58 110.2 3.74 109.9 4.06C109.607 4.38 109.46 4.82333 109.46 5.39C109.46 5.96333 109.607 6.41333 109.9 6.74C110.2 7.06 110.62 7.22 111.16 7.22Z" fill="#D9D9D9"/>
<path d="M105.374 8.40001V2.40001H106.864V8.40001H105.374ZM106.114 1.74001C105.88 1.74001 105.68 1.66001 105.514 1.50001C105.354 1.33334 105.274 1.13334 105.274 0.900005C105.274 0.666672 105.354 0.470005 105.514 0.310005C105.68 0.143338 105.88 0.0600052 106.114 0.0600052C106.347 0.0600052 106.544 0.143338 106.704 0.310005C106.87 0.470005 106.954 0.666672 106.954 0.900005C106.954 1.13334 106.87 1.33334 106.704 1.50001C106.544 1.66001 106.347 1.74001 106.114 1.74001Z" fill="#D9D9D9"/>
<path d="M102.568 8.4C102.175 8.4 101.868 8.3 101.648 8.1C101.435 7.9 101.328 7.59667 101.328 7.19V3.56H100.268V2.4H101.338V0.599998H102.798V2.4H104.248V3.56H102.818V7.23H104.388V8.4H102.568Z" fill="#D9D9D9"/>
<path d="M95.5975 8.51C94.7775 8.51 94.1442 8.29333 93.6975 7.86C93.2575 7.42 93.0375 6.82667 93.0375 6.08V2.4H94.5275V5.78C94.5275 6.24667 94.6475 6.6 94.8875 6.84C95.1275 7.07333 95.4842 7.19 95.9575 7.19C96.4575 7.19 96.8408 7.06333 97.1075 6.81C97.3742 6.55667 97.5075 6.2 97.5075 5.74V2.4H98.9975V6.91H99.7475V8.4H98.2175V7.44H97.7975C97.5642 7.78667 97.2708 8.05333 96.9175 8.24C96.5708 8.42 96.1308 8.51 95.5975 8.51Z" fill="#D9D9D9"/>
<path d="M90.1509 8.4V0H91.6409V8.4H90.1509Z" fill="#D9D9D9"/>
<path d="M85.8594 8.52C85.2127 8.52 84.6494 8.39333 84.1694 8.14C83.696 7.88 83.326 7.51666 83.0594 7.05C82.7994 6.58333 82.6694 6.03333 82.6694 5.4C82.6694 4.76 82.7994 4.20667 83.0594 3.74C83.326 3.27333 83.6994 2.91333 84.1794 2.66C84.6594 2.40667 85.2194 2.28 85.8594 2.28C86.5127 2.28 87.0727 2.40667 87.5394 2.66C88.0127 2.91333 88.3794 3.27333 88.6394 3.74C88.8994 4.20667 89.0294 4.76 89.0294 5.4C89.0294 6.03333 88.8994 6.58667 88.6394 7.06C88.3794 7.52667 88.0127 7.88667 87.5394 8.14C87.066 8.39333 86.506 8.52 85.8594 8.52ZM85.8594 7.22C86.3927 7.22 86.806 7.06 87.0994 6.74C87.3927 6.41333 87.5394 5.96667 87.5394 5.4C87.5394 4.82667 87.3927 4.38 87.0994 4.06C86.806 3.74 86.3927 3.58 85.8594 3.58C85.3194 3.58 84.8994 3.74 84.5994 4.06C84.306 4.38 84.1594 4.82333 84.1594 5.39C84.1594 5.96333 84.306 6.41333 84.5994 6.74C84.8994 7.06 85.3194 7.22 85.8594 7.22Z" fill="#D9D9D9"/>
<path d="M78.5867 8.52C77.5134 8.52 76.6567 8.28667 76.0167 7.82C75.3834 7.34667 75.0367 6.69333 74.9767 5.86H76.5467C76.6001 6.32667 76.8034 6.68 77.1567 6.92C77.5167 7.16 78.0134 7.28 78.6467 7.28C79.2067 7.28 79.6301 7.18667 79.9167 7C80.2101 6.80667 80.3567 6.52667 80.3567 6.16C80.3567 5.87333 80.2601 5.64333 80.0667 5.47C79.8801 5.29667 79.5834 5.16667 79.1767 5.08L77.5367 4.75C76.8034 4.59667 76.2501 4.33667 75.8767 3.97C75.5101 3.60333 75.3267 3.13 75.3267 2.55C75.3267 1.81667 75.6034 1.24 76.1567 0.82C76.7101 0.393334 77.4667 0.18 78.4267 0.18C79.3934 0.18 80.1734 0.403333 80.7667 0.85C81.3667 1.29 81.7067 1.90333 81.7867 2.69H80.2167C80.0167 1.82333 79.3901 1.39 78.3367 1.39C77.8634 1.39 77.4901 1.48 77.2167 1.66C76.9501 1.83333 76.8167 2.08333 76.8167 2.41C76.8167 2.92333 77.1834 3.25333 77.9167 3.4L79.6167 3.75C80.3767 3.90333 80.9367 4.17 81.2967 4.55C81.6634 4.92333 81.8467 5.42 81.8467 6.04C81.8467 6.82 81.5601 7.43 80.9867 7.87C80.4201 8.30333 79.6201 8.52 78.5867 8.52Z" fill="#D9D9D9"/>
<path d="M68.4633 8.52C67.9633 8.52 67.5366 8.42667 67.1833 8.24C66.8299 8.05333 66.55 7.78667 66.3433 7.44H65.9233V8.4H64.3933V6.91H65.1333V0H66.6233V3.27H66.6633C66.8433 2.95 67.0966 2.70667 67.4233 2.54C67.75 2.36667 68.14 2.28 68.5933 2.28C69.1666 2.28 69.6566 2.41 70.0633 2.67C70.47 2.92333 70.78 3.28333 70.9933 3.75C71.2133 4.21667 71.3233 4.76667 71.3233 5.4C71.3233 6.02667 71.2133 6.57667 70.9933 7.05C70.7733 7.51667 70.45 7.88 70.0233 8.14C69.6033 8.39333 69.0833 8.52 68.4633 8.52ZM68.1933 7.23C68.7333 7.23 69.14 7.07 69.4133 6.75C69.6933 6.42333 69.8333 5.97333 69.8333 5.4C69.8333 4.82667 69.6933 4.38 69.4133 4.06C69.14 3.73333 68.7333 3.57 68.1933 3.57C67.7199 3.57 67.34 3.70667 67.0533 3.98C66.7666 4.24667 66.6233 4.61333 66.6233 5.08V5.72C66.6233 6.18667 66.7666 6.55667 67.0533 6.83C67.34 7.09667 67.7199 7.23 68.1933 7.23Z" fill="#D9D9D9"/>
<path d="M60.7864 8.52C60.1397 8.52 59.5797 8.39333 59.1064 8.14C58.6331 7.88 58.2664 7.51666 58.0064 7.05C57.7531 6.57666 57.6264 6.02 57.6264 5.38C57.6264 4.74 57.7531 4.19 58.0064 3.73C58.2597 3.26333 58.6197 2.90667 59.0864 2.66C59.5531 2.40667 60.0997 2.28 60.7264 2.28C61.3397 2.28 61.8664 2.4 62.3064 2.64C62.7464 2.87333 63.0864 3.21333 63.3264 3.66C63.5664 4.1 63.6864 4.62333 63.6864 5.23V5.75H59.0664C59.1197 6.25667 59.2931 6.64667 59.5864 6.92C59.8864 7.18667 60.2831 7.32 60.7764 7.32C61.1431 7.32 61.4397 7.25333 61.6664 7.12C61.8997 6.98 62.0631 6.77333 62.1564 6.5H63.6564C63.5164 7.13333 63.1931 7.63 62.6864 7.99C62.1864 8.34333 61.5531 8.52 60.7864 8.52ZM59.0964 4.74H62.2564C62.1964 4.32667 62.0364 4.01333 61.7764 3.8C61.5164 3.58 61.1664 3.47 60.7264 3.47C60.2931 3.47 59.9364 3.58 59.6564 3.8C59.3764 4.02 59.1897 4.33333 59.0964 4.74Z" fill="#D9D9D9"/>
<path d="M48.8222 8.4L46.4822 0.300003H48.0722L49.6522 6.12H49.7022L51.4522 0.300003H52.8122L54.6622 6.12H54.7022L56.2622 0.300003H57.8622L55.5322 8.4H53.9922L52.1422 2.43H52.1022L50.3522 8.4H48.8222Z" fill="#D9D9D9"/>
<path d="M38.8988 8.52C38.2854 8.52 37.7654 8.39333 37.3387 8.14C36.9121 7.88 36.5854 7.51667 36.3587 7.05C36.1387 6.57667 36.0287 6.02667 36.0287 5.4C36.0287 4.76667 36.1354 4.21667 36.3487 3.75C36.5687 3.28333 36.8821 2.92333 37.2887 2.67C37.7021 2.41 38.1954 2.28 38.7687 2.28C39.2221 2.28 39.6121 2.36667 39.9387 2.54C40.2654 2.70667 40.5154 2.95 40.6887 3.27H40.7287V0H42.2188V6.91H42.9587V8.4H41.4387V7.44H41.0187C40.8054 7.78667 40.5221 8.05333 40.1687 8.24C39.8154 8.42667 39.3921 8.52 38.8988 8.52ZM39.1587 7.23C39.6387 7.23 40.0187 7.09667 40.2987 6.83C40.5854 6.55667 40.7287 6.18667 40.7287 5.72V5.08C40.7287 4.61333 40.5854 4.24667 40.2987 3.98C40.0187 3.70667 39.6387 3.57 39.1587 3.57C38.6254 3.57 38.2187 3.73333 37.9387 4.06C37.6587 4.38 37.5187 4.82667 37.5187 5.4C37.5187 5.97333 37.6587 6.42333 37.9387 6.75C38.2187 7.07 38.6254 7.23 39.1587 7.23Z" fill="#D9D9D9"/>
<path d="M29.0278 8.4V3.89H28.2878V2.4H29.8178V3.36H30.2378C30.4645 3.02 30.7545 2.75667 31.1078 2.57C31.4611 2.38333 31.8945 2.29 32.4078 2.29C33.2278 2.29 33.8611 2.51667 34.3078 2.97C34.7611 3.42333 34.9878 4.02667 34.9878 4.78V8.4H33.4978V5.06C33.4978 4.58667 33.3711 4.22667 33.1178 3.98C32.8711 3.73333 32.5011 3.61 32.0078 3.61C31.5278 3.61 31.1578 3.73333 30.8978 3.98C30.6445 4.22667 30.5178 4.58667 30.5178 5.06V8.4H29.0278Z" fill="#D9D9D9"/>
<path d="M24.6809 8.52C24.0343 8.52 23.4743 8.39333 23.0009 8.14C22.5276 7.88 22.1609 7.51666 21.9009 7.05C21.6476 6.57666 21.5209 6.02 21.5209 5.38C21.5209 4.74 21.6476 4.19 21.9009 3.73C22.1543 3.26333 22.5143 2.90667 22.9809 2.66C23.4476 2.40667 23.9943 2.28 24.6209 2.28C25.2343 2.28 25.7609 2.4 26.2009 2.64C26.6409 2.87333 26.9809 3.21333 27.2209 3.66C27.4609 4.1 27.5809 4.62333 27.5809 5.23V5.75H22.9609C23.0143 6.25667 23.1876 6.64667 23.4809 6.92C23.7809 7.18667 24.1776 7.32 24.6709 7.32C25.0376 7.32 25.3343 7.25333 25.5609 7.12C25.7943 6.98 25.9576 6.77333 26.0509 6.5H27.5509C27.4109 7.13333 27.0876 7.63 26.5809 7.99C26.0809 8.34333 25.4476 8.52 24.6809 8.52ZM22.9909 4.74H26.1509C26.0909 4.32667 25.9309 4.01333 25.6709 3.8C25.4109 3.58 25.0609 3.47 24.6209 3.47C24.1876 3.47 23.8309 3.58 23.5509 3.8C23.2709 4.02 23.0843 4.33333 22.9909 4.74Z" fill="#D9D9D9"/>
<path d="M18.127 8.52C17.507 8.52 16.9637 8.39333 16.497 8.14C16.0304 7.88 15.667 7.51666 15.407 7.05C15.147 6.58333 15.017 6.03333 15.017 5.4C15.017 4.76667 15.1437 4.21667 15.397 3.75C15.657 3.28333 16.0204 2.92333 16.487 2.67C16.9537 2.41 17.5004 2.28 18.127 2.28C18.9004 2.28 19.5404 2.47667 20.047 2.87C20.5537 3.25666 20.8737 3.79667 21.007 4.49H19.517C19.417 4.19 19.2504 3.96333 19.017 3.81C18.7837 3.65667 18.487 3.58 18.127 3.58C17.6337 3.58 17.2404 3.74 16.947 4.06C16.6537 4.37333 16.507 4.82 16.507 5.4C16.507 5.98 16.6537 6.43 16.947 6.75C17.2404 7.06333 17.6337 7.22 18.127 7.22C18.9004 7.22 19.3737 6.88667 19.547 6.22H21.047C20.9204 6.94667 20.6037 7.51333 20.097 7.92C19.5904 8.32 18.9337 8.52 18.127 8.52Z" fill="#D9D9D9"/>
<path d="M11.7464 8.52C10.8797 8.52 10.1964 8.34 9.69641 7.98C9.19641 7.61333 8.92641 7.10333 8.88641 6.45H10.3364C10.3831 6.76333 10.5264 6.99667 10.7664 7.15C11.0064 7.29667 11.3531 7.37 11.8064 7.37C12.5731 7.37 12.9564 7.14667 12.9564 6.7C12.9564 6.52 12.8964 6.38 12.7764 6.28C12.6631 6.18 12.4697 6.10333 12.1964 6.05L10.8764 5.8C9.70308 5.57333 9.11641 5.02 9.11641 4.14C9.11641 3.57333 9.33975 3.12333 9.78641 2.79C10.2331 2.45 10.8497 2.28 11.6364 2.28C12.4231 2.28 13.0464 2.45333 13.5064 2.8C13.9731 3.14 14.2331 3.62333 14.2864 4.25H12.8464C12.7731 3.95 12.6331 3.73333 12.4264 3.6C12.2264 3.46 11.9364 3.39 11.5564 3.39C11.2164 3.39 10.9564 3.44333 10.7764 3.55C10.5964 3.65667 10.5064 3.81333 10.5064 4.02C10.5064 4.17333 10.5631 4.29667 10.6764 4.39C10.7897 4.48333 10.9697 4.55333 11.2164 4.6L12.5664 4.86C13.1797 4.98 13.6297 5.18 13.9164 5.46C14.2031 5.74 14.3464 6.11666 14.3464 6.59C14.3464 7.19666 14.1231 7.67 13.6764 8.01C13.2297 8.35 12.5864 8.52 11.7464 8.52Z" fill="#D9D9D9"/>
<path d="M0 8.4L3.44 0.300003H5.03L8.45 8.4H6.89L6 6.28H2.41L1.51 8.4H0ZM2.89 5H5.57L4.26 1.86H4.21L2.89 5Z" fill="#D9D9D9"/>
</svg>
