<svg width="409" height="29" viewBox="0 0 409 29" fill="none" xmlns="http://www.w3.org/2000/svg">
<path d="M38.7881 7.59961C41.4102 7.59965 43.4882 8.17749 45.0215 9.33301C46.577 10.4663 47.4433 12.0781 47.6211 14.167H42.8213C42.5768 13.167 42.1098 12.4444 41.4209 12C40.7543 11.5335 39.7879 11.2998 38.5215 11.2998C37.3882 11.2998 36.5209 11.4775 35.9209 11.833C35.3209 12.1886 35.0215 12.7115 35.0215 13.4004C35.0216 13.9113 35.2102 14.3228 35.5879 14.6338C35.9657 14.9448 36.5658 15.1775 37.3877 15.333L41.8877 16.2002C43.9321 16.6002 45.4321 17.2669 46.3877 18.2002C47.3432 19.1335 47.8213 20.389 47.8213 21.9668C47.8213 23.989 47.0767 25.5669 45.5879 26.7002C44.099 27.8335 41.9543 28.4004 39.1543 28.4004C36.2655 28.4004 33.9879 27.7996 32.3213 26.5996C30.6547 25.3774 29.7544 23.6777 29.6211 21.5H34.4541C34.6096 22.5443 35.0878 23.3219 35.8877 23.833C36.6877 24.3219 37.8434 24.5664 39.3545 24.5664C41.91 24.5664 43.1875 23.8219 43.1875 22.333C43.1874 21.7332 42.9877 21.2669 42.5879 20.9336C42.2101 20.6003 41.5654 20.3448 40.6543 20.167L36.2549 19.333C32.3438 18.5775 30.3877 16.7331 30.3877 13.7998C30.3877 11.911 31.1323 10.4109 32.6211 9.2998C34.11 8.1665 36.1659 7.59961 38.7881 7.59961ZM60.4229 7.59961C63.0006 7.59961 65.1344 8.25536 66.8232 9.56641C68.5121 10.8553 69.579 12.6557 70.0234 14.9668H65.0566C64.7233 13.9668 64.1674 13.2113 63.3896 12.7002C62.6119 12.1891 61.6228 11.9336 60.4229 11.9336C58.7787 11.9337 57.4679 12.4668 56.4902 13.5332C55.5125 14.5776 55.0234 16.0667 55.0234 18C55.0234 19.9333 55.5125 21.4333 56.4902 22.5C57.4679 23.5443 58.7787 24.0663 60.4229 24.0664C63.0006 24.0664 64.5784 22.9555 65.1562 20.7334H70.1562C69.734 23.1556 68.6791 25.0449 66.9902 26.4004C65.3013 27.7337 63.1117 28.4004 60.4229 28.4004C58.3565 28.4003 56.5456 27.978 54.9902 27.1338C53.4347 26.2671 52.2231 25.0556 51.3564 23.5C50.4898 21.9445 50.0566 20.1111 50.0566 18C50.0566 15.8889 50.4788 14.0556 51.3232 12.5C52.1899 10.9444 53.4015 9.74483 54.957 8.90039C56.5125 8.03385 58.3342 7.59966 60.4229 7.59961ZM82.0693 7.59961C84.1136 7.59961 85.8693 7.99993 87.3359 8.7998C88.8026 9.57758 89.9363 10.7113 90.7363 12.2002C91.5363 13.6668 91.9365 15.4115 91.9365 17.4336V19.167H76.5361C76.7139 20.8556 77.2919 22.1554 78.2695 23.0664C79.2695 23.9553 80.5919 24.4004 82.2363 24.4004C83.4585 24.4004 84.4476 24.1778 85.2031 23.7334C85.9807 23.2668 86.5248 22.5779 86.8359 21.667H91.8359C91.3692 23.7779 90.2913 25.4339 88.6025 26.6338C86.9359 27.8113 84.8248 28.4004 82.2695 28.4004C80.1142 28.4004 78.2476 27.9781 76.6699 27.1338C75.0921 26.2671 73.8696 25.0556 73.0029 23.5C72.1585 21.9223 71.7364 20.0668 71.7363 17.9336C71.7363 15.8004 72.1586 13.9669 73.0029 12.4336C73.8474 10.8781 75.047 9.68843 76.6025 8.86621C78.158 8.0218 79.9806 7.59965 82.0693 7.59961ZM140.729 23.0332H143.195V28H138.129V24.7998H136.729C136.017 25.9553 135.073 26.8446 133.896 27.4668C132.718 28.089 131.306 28.4004 129.662 28.4004C127.618 28.4004 125.884 27.9782 124.462 27.1338C123.04 26.2671 121.951 25.0555 121.195 23.5C120.462 21.9223 120.096 20.0888 120.096 18C120.096 15.8889 120.451 14.0555 121.162 12.5C121.895 10.9444 122.94 9.74483 124.296 8.90039C125.674 8.0338 127.318 7.59968 129.229 7.59961C130.74 7.59961 132.04 7.88902 133.129 8.4668C134.218 9.02235 135.051 9.83373 135.629 10.9004H135.763V0H140.729V23.0332ZM192.812 7.59961C194.856 7.59961 196.612 7.99992 198.078 8.7998C199.545 9.57758 200.679 10.7113 201.479 12.2002C202.278 13.6668 202.679 15.4115 202.679 17.4336V19.167H187.278C187.456 20.8556 188.034 22.1554 189.012 23.0664C190.012 23.9553 191.334 24.4004 192.979 24.4004C194.201 24.4004 195.19 24.1778 195.945 23.7334C196.723 23.2668 197.267 22.5779 197.578 21.667H202.578C202.111 23.7779 201.034 25.4339 199.345 26.6338C197.678 27.8113 195.567 28.4004 193.012 28.4004C190.856 28.4004 188.99 27.9781 187.412 27.1338C185.834 26.2671 184.612 25.0556 183.745 23.5C182.901 21.9223 182.479 20.0668 182.479 17.9336C182.479 15.8004 182.901 13.9669 183.745 12.4336C184.59 10.8781 185.789 9.68843 187.345 8.86621C188.9 8.0218 190.723 7.59964 192.812 7.59961ZM212.468 10.9004H212.602C213.202 9.83373 214.046 9.02235 215.135 8.4668C216.224 7.88902 217.524 7.59961 219.035 7.59961C220.946 7.59968 222.579 8.03379 223.935 8.90039C225.29 9.74483 226.324 10.9445 227.035 12.5C227.768 14.0555 228.135 15.889 228.135 18C228.135 20.0888 227.768 21.9223 227.035 23.5C226.302 25.0555 225.224 26.2671 223.802 27.1338C222.402 27.9782 220.668 28.4004 218.602 28.4004C216.935 28.4004 215.513 28.0889 214.335 27.4668C213.157 26.8446 212.224 25.9553 211.535 24.7998H210.135V28H205.035V23.0332H207.501V0H212.468V10.9004ZM242.203 0.599609C245.425 0.599609 248.026 1.34412 250.004 2.83301C252.004 4.29967 253.137 6.34464 253.403 8.9668H248.17C247.503 6.07791 245.414 4.63379 241.903 4.63379C240.326 4.63381 239.081 4.93322 238.17 5.5332C237.281 6.11096 236.837 6.94441 236.837 8.0332C236.837 9.74431 238.059 10.8441 240.504 11.333L246.17 12.5C248.703 13.0111 250.571 13.9003 251.771 15.167C252.992 16.4114 253.604 18.0673 253.604 20.1338C253.603 22.7336 252.647 24.7668 250.736 26.2334C248.847 27.6777 246.181 28.4004 242.736 28.4004C239.159 28.4003 236.303 27.6219 234.17 26.0664C232.059 24.4886 230.903 22.3109 230.703 19.5332H235.937C236.114 21.0886 236.792 22.2664 237.97 23.0664C239.17 23.8664 240.826 24.2666 242.937 24.2666C244.803 24.2666 246.214 23.9552 247.17 23.333C248.148 22.6886 248.637 21.7554 248.637 20.5332C248.637 19.5777 248.314 18.8112 247.67 18.2334C247.048 17.6557 246.059 17.2225 244.703 16.9336L239.236 15.833C236.792 15.3219 234.947 14.4555 233.703 13.2334C232.481 12.0112 231.87 10.4333 231.87 8.5C231.87 6.05559 232.792 4.13339 234.637 2.7334C236.481 1.31122 239.003 0.599657 242.203 0.599609ZM266.979 7.59961C269.156 7.59961 271.024 8.0218 272.579 8.86621C274.157 9.71066 275.379 10.9112 276.246 12.4668C277.113 14.0223 277.546 15.8668 277.546 18C277.546 20.111 277.113 21.9555 276.246 23.5332C275.379 25.0888 274.157 26.2893 272.579 27.1338C271.001 27.9782 269.134 28.4004 266.979 28.4004C264.823 28.4003 262.946 27.9781 261.346 27.1338C259.768 26.2671 258.534 25.0556 257.646 23.5C256.779 21.9445 256.346 20.1111 256.346 18C256.346 15.8667 256.779 14.0223 257.646 12.4668C258.534 10.9112 259.779 9.71066 261.379 8.86621C262.979 8.02188 264.845 7.59967 266.979 7.59961ZM351.314 7.59961C353.492 7.59961 355.36 8.0218 356.915 8.86621C358.493 9.71066 359.715 10.9112 360.582 12.4668C361.449 14.0223 361.882 15.8668 361.882 18C361.882 20.111 361.449 21.9555 360.582 23.5332C359.715 25.0888 358.493 26.2893 356.915 27.1338C355.337 27.9782 353.47 28.4004 351.314 28.4004C349.159 28.4003 347.281 27.9781 345.682 27.1338C344.104 26.2671 342.87 25.0556 341.981 23.5C341.115 21.9445 340.682 20.1111 340.682 18C340.682 15.8667 341.115 14.0223 341.981 12.4668C342.87 10.9112 344.115 9.71066 345.715 8.86621C347.315 8.02188 349.181 7.59967 351.314 7.59961ZM399.257 7.59961C401.879 7.59965 403.957 8.17749 405.49 9.33301C407.046 10.4663 407.912 12.0781 408.09 14.167H403.29C403.046 13.167 402.579 12.4444 401.89 12C401.223 11.5335 400.257 11.2998 398.99 11.2998C397.857 11.2998 396.99 11.4775 396.39 11.833C395.79 12.1886 395.49 12.7115 395.49 13.4004C395.49 13.9113 395.679 14.3228 396.057 14.6338C396.434 14.9448 397.034 15.1775 397.856 15.333L402.356 16.2002C404.401 16.6002 405.901 17.2669 406.856 18.2002C407.812 19.1335 408.29 20.389 408.29 21.9668C408.29 23.989 407.545 25.5669 406.057 26.7002C404.568 27.8335 402.423 28.4004 399.623 28.4004C396.734 28.4004 394.457 27.7996 392.79 26.5996C391.123 25.3774 390.223 23.6777 390.09 21.5H394.923C395.078 22.5443 395.557 23.3219 396.356 23.833C397.156 24.3219 398.312 24.5664 399.823 24.5664C402.379 24.5664 403.656 23.8219 403.656 22.333C403.656 21.7332 403.456 21.2669 403.057 20.9336C402.679 20.6003 402.034 20.3448 401.123 20.167L396.724 19.333C392.813 18.5775 390.856 16.7331 390.856 13.7998C390.856 11.911 391.601 10.4109 393.09 9.2998C394.579 8.1665 396.635 7.59961 399.257 7.59961ZM295.873 19.2666C295.873 20.8219 296.272 21.9998 297.072 22.7998C297.872 23.5776 299.062 23.9668 300.64 23.9668C302.306 23.9668 303.584 23.5445 304.473 22.7002C305.361 21.8558 305.806 20.6669 305.806 19.1338V8H310.772V23.0332H313.272V28H308.173V24.7998H306.772C305.995 25.9553 305.017 26.8446 303.84 27.4668C302.684 28.0668 301.217 28.3662 299.439 28.3662C296.706 28.3662 294.595 27.6444 293.106 26.2002C291.64 24.7335 290.906 22.7555 290.906 20.2666V8H295.873V19.2666ZM28.166 28H22.9668L20 20.9336H8.0332L5.0332 28H0L11.4668 1H16.7666L28.166 28ZM108.025 7.63379C110.759 7.63379 112.87 8.38928 114.359 9.90039C115.87 11.4115 116.626 13.4226 116.626 15.9336V28H111.659V16.8662C111.659 15.2887 111.237 14.0887 110.393 13.2666C109.57 12.4444 108.337 12.0332 106.692 12.0332C105.092 12.0332 103.859 12.4444 102.992 13.2666C102.148 14.0887 101.726 15.2887 101.726 16.8662V28H96.7588V12.9668H94.293V8H99.3926V11.2002H100.793C101.549 10.0669 102.515 9.18862 103.692 8.56641C104.87 7.94424 106.314 7.63384 108.025 7.63379ZM155.897 20.4004H156.064L161.897 1H166.431L172.598 20.4004H172.731L177.931 1H183.265L175.498 28H170.364L164.197 8.09961H164.064L158.231 28H153.131L145.331 1H150.631L155.897 20.4004ZM286.251 28H281.284V0H286.251V28ZM323.442 8H328.275V11.8662H323.509V24.0996H328.742V28H322.676C321.365 28 320.343 27.6666 319.609 27C318.898 26.3334 318.543 25.3223 318.543 23.9668V11.8662H315.009V8H318.576V2H323.442V8ZM336.993 28H332.026V8H336.993V28ZM377.986 7.63379C380.72 7.63379 382.831 8.38928 384.32 9.90039C385.831 11.4115 386.587 13.4226 386.587 15.9336V28H381.62V16.8662C381.62 15.2887 381.198 14.0887 380.354 13.2666C379.531 12.4444 378.298 12.0332 376.653 12.0332C375.053 12.0332 373.82 12.4444 372.953 13.2666C372.109 14.0887 371.687 15.2887 371.687 16.8662V28H366.72V12.9668H364.254V8H369.354V11.2002H370.754C371.509 10.0669 372.476 9.18862 373.653 8.56641C374.831 7.94424 376.275 7.63384 377.986 7.63379ZM130.529 11.9004C128.752 11.9004 127.395 12.4443 126.462 13.5332C125.529 14.5999 125.062 16.089 125.062 18C125.062 19.911 125.529 21.4111 126.462 22.5C127.395 23.5667 128.752 24.0996 130.529 24.0996C132.129 24.0996 133.396 23.6554 134.329 22.7666C135.285 21.8555 135.763 20.6219 135.763 19.0664V16.9336C135.763 15.3781 135.285 14.1555 134.329 13.2666C133.396 12.3555 132.129 11.9004 130.529 11.9004ZM217.701 11.9004C216.124 11.9004 214.857 12.3555 213.901 13.2666C212.946 14.1555 212.468 15.378 212.468 16.9336V19.0664C212.468 20.6219 212.946 21.8555 213.901 22.7666C214.857 23.6555 216.123 24.0996 217.701 24.0996C219.501 24.0996 220.856 23.5665 221.768 22.5C222.701 21.4111 223.168 19.9111 223.168 18C223.168 16.0889 222.701 14.5999 221.768 13.5332C220.856 12.4445 219.501 11.9004 217.701 11.9004ZM266.979 11.9336C265.179 11.9337 263.779 12.4668 262.779 13.5332C261.802 14.5999 261.312 16.0779 261.312 17.9668C261.313 19.8778 261.802 21.3779 262.779 22.4668C263.779 23.5332 265.179 24.0663 266.979 24.0664C268.756 24.0664 270.135 23.5334 271.112 22.4668C272.09 21.3779 272.579 19.8889 272.579 18C272.579 16.0889 272.09 14.5999 271.112 13.5332C270.135 12.4666 268.756 11.9336 266.979 11.9336ZM351.314 11.9336C349.515 11.9337 348.115 12.4668 347.115 13.5332C346.137 14.5999 345.648 16.0779 345.648 17.9668C345.648 19.8778 346.137 21.3779 347.115 22.4668C348.115 23.5332 349.515 24.0663 351.314 24.0664C353.092 24.0664 354.47 23.5334 355.448 22.4668C356.426 21.3779 356.915 19.8889 356.915 18C356.915 16.0889 356.426 14.5999 355.448 13.5332C354.47 12.4666 353.092 11.9336 351.314 11.9336ZM9.63281 16.667H18.5664L14.2002 6.2002H14.0332L9.63281 16.667ZM82.0693 11.5664C80.625 11.5665 79.4362 11.9337 78.5029 12.667C77.5698 13.4003 76.9478 14.4445 76.6367 15.7998H87.1699C86.9699 14.4221 86.436 13.3781 85.5693 12.667C84.7027 11.9337 83.536 11.5664 82.0693 11.5664ZM192.812 11.5664C191.367 11.5665 190.178 11.9337 189.245 12.667C188.312 13.4003 187.69 14.4445 187.379 15.7998H197.912C197.712 14.4221 197.178 13.3781 196.312 12.667C195.445 11.9337 194.278 11.5664 192.812 11.5664ZM334.493 0.200195C335.271 0.200224 335.927 0.477677 336.46 1.0332C337.015 1.56652 337.293 2.22226 337.293 3C337.293 3.77771 337.015 4.44447 336.46 5C335.927 5.5333 335.271 5.79978 334.493 5.7998C333.715 5.7998 333.049 5.53329 332.493 5C331.96 4.44444 331.693 3.77778 331.693 3C331.693 2.22222 331.96 1.56654 332.493 1.0332C333.049 0.477731 333.715 0.200195 334.493 0.200195Z" fill="white"/>
</svg>
