<svg width="409" height="29" viewBox="0 0 409 29" fill="none" xmlns="http://www.w3.org/2000/svg">
<rect width="409" height="29" fill="#1E1E1E"/>
<g id="Vector">
<path d="M399.623 28.4C396.735 28.4 394.457 27.8 392.79 26.6C391.123 25.3778 390.223 23.6778 390.09 21.5H394.923C395.079 22.5444 395.557 23.3222 396.357 23.8333C397.157 24.3222 398.312 24.5667 399.823 24.5667C402.379 24.5667 403.657 23.8222 403.657 22.3333C403.657 21.7333 403.457 21.2667 403.057 20.9333C402.679 20.6 402.035 20.3444 401.123 20.1667L396.723 19.3333C392.812 18.5778 390.857 16.7333 390.857 13.8C390.857 11.9111 391.601 10.4111 393.09 9.3C394.579 8.16666 396.635 7.6 399.257 7.6C401.879 7.6 403.957 8.17778 405.49 9.33333C407.046 10.4667 407.912 12.0778 408.09 14.1667H403.29C403.046 13.1667 402.579 12.4444 401.89 12C401.223 11.5333 400.257 11.3 398.99 11.3C397.857 11.3 396.99 11.4778 396.39 11.8333C395.79 12.1889 395.49 12.7111 395.49 13.4C395.49 13.9111 395.679 14.3222 396.057 14.6333C396.435 14.9444 397.035 15.1778 397.857 15.3333L402.357 16.2C404.401 16.6 405.901 17.2667 406.857 18.2C407.812 19.1333 408.29 20.3889 408.29 21.9667C408.29 23.9889 407.546 25.5667 406.057 26.7C404.568 27.8333 402.423 28.4 399.623 28.4Z" fill="white"/>
<path d="M366.72 28V12.9667H364.254V8H369.354V11.2H370.754C371.509 10.0667 372.476 9.18889 373.654 8.56666C374.831 7.94444 376.276 7.63333 377.987 7.63333C380.72 7.63333 382.831 8.38889 384.32 9.9C385.831 11.4111 386.587 13.4222 386.587 15.9333V28H381.62V16.8667C381.62 15.2889 381.198 14.0889 380.354 13.2667C379.531 12.4444 378.298 12.0333 376.654 12.0333C375.054 12.0333 373.82 12.4444 372.954 13.2667C372.109 14.0889 371.687 15.2889 371.687 16.8667V28H366.72Z" fill="white"/>
<path d="M351.315 28.4C349.16 28.4 347.282 27.9778 345.682 27.1333C344.104 26.2667 342.871 25.0556 341.982 23.5C341.115 21.9444 340.682 20.1111 340.682 18C340.682 15.8667 341.115 14.0222 341.982 12.4667C342.871 10.9111 344.115 9.71111 345.715 8.86666C347.315 8.02222 349.182 7.6 351.315 7.6C353.493 7.6 355.36 8.02222 356.915 8.86666C358.493 9.71111 359.715 10.9111 360.582 12.4667C361.448 14.0222 361.882 15.8667 361.882 18C361.882 20.1111 361.448 21.9556 360.582 23.5333C359.715 25.0889 358.493 26.2889 356.915 27.1333C355.337 27.9778 353.471 28.4 351.315 28.4ZM351.315 24.0667C353.093 24.0667 354.471 23.5333 355.448 22.4667C356.426 21.3778 356.915 19.8889 356.915 18C356.915 16.0889 356.426 14.6 355.448 13.5333C354.471 12.4667 353.093 11.9333 351.315 11.9333C349.515 11.9333 348.115 12.4667 347.115 13.5333C346.137 14.6 345.648 16.0778 345.648 17.9667C345.648 19.8778 346.137 21.3778 347.115 22.4667C348.115 23.5333 349.515 24.0667 351.315 24.0667Z" fill="white"/>
<path d="M332.027 28V8H336.993V28H332.027ZM334.493 5.8C333.715 5.8 333.049 5.53333 332.493 5C331.96 4.44444 331.693 3.77777 331.693 3C331.693 2.22222 331.96 1.56666 332.493 1.03333C333.049 0.477774 333.715 0.199997 334.493 0.199997C335.271 0.199997 335.927 0.477774 336.46 1.03333C337.015 1.56666 337.293 2.22222 337.293 3C337.293 3.77777 337.015 4.44444 336.46 5C335.927 5.53333 335.271 5.8 334.493 5.8Z" fill="white"/>
<path d="M322.676 28C321.365 28 320.343 27.6667 319.609 27C318.898 26.3333 318.543 25.3222 318.543 23.9667V11.8667H315.009V8H318.576V2H323.443V8H328.276V11.8667H323.509V24.1H328.743V28H322.676Z" fill="white"/>
<path d="M299.44 28.3667C296.706 28.3667 294.595 27.6444 293.106 26.2C291.64 24.7333 290.906 22.7556 290.906 20.2667V8H295.873V19.2667C295.873 20.8222 296.273 22 297.073 22.8C297.873 23.5778 299.062 23.9667 300.64 23.9667C302.306 23.9667 303.584 23.5444 304.473 22.7C305.362 21.8556 305.806 20.6667 305.806 19.1333V8H310.773V23.0333H313.273V28H308.173V24.8H306.773C305.995 25.9556 305.017 26.8444 303.84 27.4667C302.684 28.0667 301.217 28.3667 299.44 28.3667Z" fill="white"/>
<path d="M281.284 28V0H286.251V28H281.284Z" fill="white"/>
<path d="M266.979 28.4C264.824 28.4 262.946 27.9778 261.346 27.1333C259.768 26.2667 258.535 25.0556 257.646 23.5C256.779 21.9444 256.346 20.1111 256.346 18C256.346 15.8667 256.779 14.0222 257.646 12.4667C258.535 10.9111 259.779 9.71111 261.379 8.86666C262.979 8.02222 264.846 7.6 266.979 7.6C269.157 7.6 271.024 8.02222 272.579 8.86666C274.157 9.71111 275.379 10.9111 276.246 12.4667C277.112 14.0222 277.546 15.8667 277.546 18C277.546 20.1111 277.112 21.9556 276.246 23.5333C275.379 25.0889 274.157 26.2889 272.579 27.1333C271.001 27.9778 269.135 28.4 266.979 28.4ZM266.979 24.0667C268.757 24.0667 270.135 23.5333 271.112 22.4667C272.09 21.3778 272.579 19.8889 272.579 18C272.579 16.0889 272.09 14.6 271.112 13.5333C270.135 12.4667 268.757 11.9333 266.979 11.9333C265.179 11.9333 263.779 12.4667 262.779 13.5333C261.801 14.6 261.312 16.0778 261.312 17.9667C261.312 19.8778 261.801 21.3778 262.779 22.4667C263.779 23.5333 265.179 24.0667 266.979 24.0667Z" fill="white"/>
<path d="M242.737 28.4C239.159 28.4 236.304 27.6222 234.17 26.0667C232.059 24.4889 230.904 22.3111 230.704 19.5333H235.937C236.115 21.0889 236.793 22.2667 237.97 23.0667C239.17 23.8667 240.826 24.2667 242.937 24.2667C244.804 24.2667 246.215 23.9556 247.17 23.3333C248.148 22.6889 248.637 21.7556 248.637 20.5333C248.637 19.5778 248.315 18.8111 247.67 18.2333C247.048 17.6556 246.059 17.2222 244.704 16.9333L239.237 15.8333C236.793 15.3222 234.948 14.4556 233.704 13.2333C232.481 12.0111 231.87 10.4333 231.87 8.5C231.87 6.05555 232.793 4.13333 234.637 2.73333C236.481 1.31111 239.004 0.599998 242.204 0.599998C245.426 0.599998 248.026 1.34444 250.004 2.83333C252.004 4.3 253.137 6.34444 253.404 8.96666H248.17C247.504 6.07777 245.415 4.63333 241.904 4.63333C240.326 4.63333 239.081 4.93333 238.17 5.53333C237.281 6.11111 236.837 6.94444 236.837 8.03333C236.837 9.74444 238.059 10.8444 240.504 11.3333L246.17 12.5C248.704 13.0111 250.57 13.9 251.77 15.1667C252.993 16.4111 253.604 18.0667 253.604 20.1333C253.604 22.7333 252.648 24.7667 250.737 26.2333C248.848 27.6778 246.181 28.4 242.737 28.4Z" fill="white"/>
<path d="M218.602 28.4C216.935 28.4 215.513 28.0889 214.335 27.4667C213.157 26.8444 212.224 25.9556 211.535 24.8H210.135V28H205.035V23.0333H207.502V0H212.468V10.9H212.602C213.202 9.83333 214.046 9.02222 215.135 8.46667C216.224 7.88889 217.524 7.6 219.035 7.6C220.946 7.6 222.579 8.03333 223.935 8.9C225.29 9.74444 226.324 10.9444 227.035 12.5C227.768 14.0556 228.135 15.8889 228.135 18C228.135 20.0889 227.768 21.9222 227.035 23.5C226.302 25.0556 225.224 26.2667 223.802 27.1333C222.402 27.9778 220.668 28.4 218.602 28.4ZM217.702 24.1C219.502 24.1 220.857 23.5667 221.768 22.5C222.702 21.4111 223.168 19.9111 223.168 18C223.168 16.0889 222.702 14.6 221.768 13.5333C220.857 12.4444 219.502 11.9 217.702 11.9C216.124 11.9 214.857 12.3556 213.902 13.2667C212.946 14.1556 212.468 15.3778 212.468 16.9333V19.0667C212.468 20.6222 212.946 21.8556 213.902 22.7667C214.857 23.6556 216.124 24.1 217.702 24.1Z" fill="white"/>
<path d="M193.012 28.4C190.856 28.4 188.99 27.9778 187.412 27.1333C185.834 26.2667 184.612 25.0556 183.745 23.5C182.901 21.9222 182.479 20.0667 182.479 17.9333C182.479 15.8 182.901 13.9667 183.745 12.4333C184.59 10.8778 185.79 9.68888 187.345 8.86666C188.901 8.02222 190.723 7.6 192.812 7.6C194.856 7.6 196.612 8 198.079 8.8C199.545 9.57778 200.679 10.7111 201.479 12.2C202.279 13.6667 202.679 15.4111 202.679 17.4333V19.1667H187.279C187.456 20.8556 188.034 22.1556 189.012 23.0667C190.012 23.9556 191.334 24.4 192.979 24.4C194.201 24.4 195.19 24.1778 195.945 23.7333C196.723 23.2667 197.268 22.5778 197.579 21.6667H202.579C202.112 23.7778 201.034 25.4333 199.345 26.6333C197.679 27.8111 195.568 28.4 193.012 28.4ZM187.379 15.8H197.912C197.712 14.4222 197.179 13.3778 196.312 12.6667C195.445 11.9333 194.279 11.5667 192.812 11.5667C191.368 11.5667 190.179 11.9333 189.245 12.6667C188.312 13.4 187.69 14.4444 187.379 15.8Z" fill="white"/>
<path d="M153.131 28L145.331 1H150.631L155.898 20.4H156.065L161.898 1H166.431L172.598 20.4H172.731L177.931 1H183.265L175.498 28H170.365L164.198 8.1H164.065L158.231 28H153.131Z" fill="white"/>
<path d="M129.663 28.4C127.618 28.4 125.885 27.9778 124.462 27.1333C123.04 26.2667 121.951 25.0556 121.196 23.5C120.463 21.9222 120.096 20.0889 120.096 18C120.096 15.8889 120.451 14.0556 121.162 12.5C121.896 10.9444 122.94 9.74444 124.296 8.9C125.674 8.03333 127.318 7.6 129.229 7.6C130.74 7.6 132.04 7.88889 133.129 8.46667C134.218 9.02222 135.051 9.83333 135.629 10.9H135.762V0H140.729V23.0333H143.196V28H138.129V24.8H136.729C136.018 25.9556 135.074 26.8444 133.896 27.4667C132.718 28.0889 131.307 28.4 129.663 28.4ZM130.529 24.1C132.129 24.1 133.396 23.6556 134.329 22.7667C135.285 21.8556 135.762 20.6222 135.762 19.0667V16.9333C135.762 15.3778 135.285 14.1556 134.329 13.2667C133.396 12.3556 132.129 11.9 130.529 11.9C128.751 11.9 127.396 12.4444 126.462 13.5333C125.529 14.6 125.062 16.0889 125.062 18C125.062 19.9111 125.529 21.4111 126.462 22.5C127.396 23.5667 128.751 24.1 130.529 24.1Z" fill="white"/>
<path d="M96.7594 28V12.9667H94.2927V8H99.3927V11.2H100.793C101.548 10.0667 102.515 9.18889 103.693 8.56666C104.87 7.94444 106.315 7.63333 108.026 7.63333C110.759 7.63333 112.87 8.38889 114.359 9.9C115.87 11.4111 116.626 13.4222 116.626 15.9333V28H111.659V16.8667C111.659 15.2889 111.237 14.0889 110.393 13.2667C109.57 12.4444 108.337 12.0333 106.693 12.0333C105.093 12.0333 103.859 12.4444 102.993 13.2667C102.148 14.0889 101.726 15.2889 101.726 16.8667V28H96.7594Z" fill="white"/>
<path d="M82.2698 28.4C80.1142 28.4 78.2476 27.9778 76.6698 27.1333C75.092 26.2667 73.8698 25.0556 73.0031 23.5C72.1587 21.9222 71.7365 20.0667 71.7365 17.9333C71.7365 15.8 72.1587 13.9667 73.0031 12.4333C73.8476 10.8778 75.0476 9.68888 76.6031 8.86666C78.1587 8.02222 79.9809 7.6 82.0698 7.6C84.1142 7.6 85.8698 8 87.3365 8.8C88.8031 9.57778 89.9364 10.7111 90.7365 12.2C91.5365 13.6667 91.9365 15.4111 91.9365 17.4333V19.1667H76.5365C76.7142 20.8556 77.292 22.1556 78.2698 23.0667C79.2698 23.9556 80.592 24.4 82.2365 24.4C83.4587 24.4 84.4476 24.1778 85.2031 23.7333C85.9809 23.2667 86.5253 22.5778 86.8365 21.6667H91.8365C91.3698 23.7778 90.292 25.4333 88.6031 26.6333C86.9365 27.8111 84.8253 28.4 82.2698 28.4ZM76.6365 15.8H87.1698C86.9698 14.4222 86.4365 13.3778 85.5698 12.6667C84.7031 11.9333 83.5365 11.5667 82.0698 11.5667C80.6253 11.5667 79.4365 11.9333 78.5031 12.6667C77.5698 13.4 76.9476 14.4444 76.6365 15.8Z" fill="white"/>
<path d="M60.4234 28.4C58.3568 28.4 56.5457 27.9778 54.9901 27.1333C53.4345 26.2667 52.2234 25.0556 51.3568 23.5C50.4901 21.9444 50.0568 20.1111 50.0568 18C50.0568 15.8889 50.479 14.0556 51.3234 12.5C52.1901 10.9444 53.4012 9.74444 54.9568 8.9C56.5123 8.03333 58.3345 7.6 60.4234 7.6C63.0012 7.6 65.1345 8.25555 66.8234 9.56666C68.5123 10.8556 69.579 12.6556 70.0234 14.9667H65.0568C64.7234 13.9667 64.1679 13.2111 63.3901 12.7C62.6123 12.1889 61.6234 11.9333 60.4234 11.9333C58.779 11.9333 57.4679 12.4667 56.4901 13.5333C55.5123 14.5778 55.0234 16.0667 55.0234 18C55.0234 19.9333 55.5123 21.4333 56.4901 22.5C57.4679 23.5444 58.779 24.0667 60.4234 24.0667C63.0012 24.0667 64.579 22.9556 65.1568 20.7333H70.1568C69.7345 23.1556 68.679 25.0444 66.9901 26.4C65.3012 27.7333 63.1123 28.4 60.4234 28.4Z" fill="white"/>
<path d="M39.1547 28.4C36.2658 28.4 33.988 27.8 32.3213 26.6C30.6547 25.3778 29.7547 23.6778 29.6213 21.5H34.4547C34.6102 22.5444 35.088 23.3222 35.888 23.8333C36.688 24.3222 37.8436 24.5667 39.3547 24.5667C41.9102 24.5667 43.188 23.8222 43.188 22.3333C43.188 21.7333 42.988 21.2667 42.588 20.9333C42.2102 20.6 41.5658 20.3444 40.6547 20.1667L36.2547 19.3333C32.3436 18.5778 30.388 16.7333 30.388 13.8C30.388 11.9111 31.1324 10.4111 32.6213 9.3C34.1102 8.16666 36.1658 7.6 38.788 7.6C41.4102 7.6 43.488 8.17778 45.0213 9.33333C46.5769 10.4667 47.4436 12.0778 47.6213 14.1667H42.8213C42.5769 13.1667 42.1102 12.4444 41.4213 12C40.7547 11.5333 39.788 11.3 38.5213 11.3C37.388 11.3 36.5213 11.4778 35.9213 11.8333C35.3213 12.1889 35.0213 12.7111 35.0213 13.4C35.0213 13.9111 35.2102 14.3222 35.588 14.6333C35.9658 14.9444 36.5658 15.1778 37.388 15.3333L41.888 16.2C43.9324 16.6 45.4324 17.2667 46.388 18.2C47.3436 19.1333 47.8213 20.3889 47.8213 21.9667C47.8213 23.9889 47.0769 25.5667 45.588 26.7C44.0991 27.8333 41.9547 28.4 39.1547 28.4Z" fill="white"/>
<path d="M0 28L11.4667 1H16.7667L28.1667 28H22.9667L20 20.9333H8.03333L5.03333 28H0ZM9.63333 16.6667H18.5667L14.2 6.2H14.0333L9.63333 16.6667Z" fill="white"/>
</g>
</svg>
